<?xml version="1.0" encoding="UTF-8" standalone="no"?>
<svg
   xmlns:dc="http://purl.org/dc/elements/1.1/"
   xmlns:cc="http://creativecommons.org/ns#"
   xmlns:rdf="http://www.w3.org/1999/02/22-rdf-syntax-ns#"
   xmlns:svg="http://www.w3.org/2000/svg"
   xmlns="http://www.w3.org/2000/svg"
   xmlns:sodipodi="http://sodipodi.sourceforge.net/DTD/sodipodi-0.dtd"
   xmlns:inkscape="http://www.inkscape.org/namespaces/inkscape"
   id="svg2"
   viewBox="0 0 5012.0927 1666.2894"
   style="clip-rule:evenodd;fill-rule:evenodd;image-rendering:optimizeQuality;shape-rendering:geometricPrecision;text-rendering:geometricPrecision"
   version="1.1"
   height="150"
   width="451.06396"
   xml:space="preserve"
   inkscape:version="0.91 r13725"
   sodipodi:docname="logo_half_horizontall_white.svg"><sodipodi:namedview
     pagecolor="#ffffff"
     bordercolor="#666666"
     borderopacity="1"
     objecttolerance="10"
     gridtolerance="10"
     guidetolerance="10"
     inkscape:pageopacity="0"
     inkscape:pageshadow="2"
     inkscape:window-width="1920"
     inkscape:window-height="1017"
     id="namedview12"
     showgrid="false"
     inkscape:zoom="2.6843297"
     inkscape:cx="185.27973"
     inkscape:cy="108.27346"
     inkscape:window-x="-8"
     inkscape:window-y="-8"
     inkscape:window-maximized="1"
     inkscape:current-layer="Layer_x0020_1"
     showguides="true"
     fit-margin-top="0"
     fit-margin-left="0"
     fit-margin-right="0"
     fit-margin-bottom="0"
     units="px" /><metadata
     id="metadata20"><rdf:RDF><cc:Work
         rdf:about=""><dc:format>image/svg+xml</dc:format><dc:type
           rdf:resource="http://purl.org/dc/dcmitype/StillImage" /><dc:title></dc:title></cc:Work></rdf:RDF></metadata><defs
     id="defs4"><style
       id="style6"
       type="text/css"><![CDATA[
    .fil0 {fill:#0098DA}
    .fil1 {fill:#00A859}
   ]]></style></defs><g
     id="Layer_x0020_1"
     transform="translate(-1287.9075,207.98875)"><metadata
       id="CorelCorpID_0Corel-Layer" /><path
       style="fill:#ffffff;fill-opacity:1"
       id="path10"
       d="m 2905,395.82526 c 407,341.91608 636,723.58984 532,928.05794 -104,204.4681 -509,169.2541 -973,-59.0686 11,-2.2718 22,-4.5437 33,-6.8156 127,-31.8061 239,-114.7293 338,-248.7695 L 2682,870.6456 c -65,93.14658 -138,152.2151 -221,176.0697 -82,23.8547 -162,10.2235 -240,-40.8936 -82,-53.38886 -133,-134.04016 -154,-240.81794 -21,-107.91372 -6,-212.41963 46,-313.51774 52,-102.23405 124,-170.39008 216,-203.33216 92,-32.94208 179,-22.71867 261,31.80615 40,26.12648 73,60.20449 98,99.96218 25,39.75768 43,86.33097 53,139.71986 l -589,-9.08747 -2,186.29315 792,15.90307 c 7,-117.00118 -5,-222.64303 -38,-315.78961 z"
       class="fil0"
       inkscape:connector-curvature="0" /><path
       style="fill:#ffffff;fill-opacity:1"
       id="path12"
       d="M 1913,913.81109 C 1464,558.2638 1203,145.91982 1313,-69.907609 1423,-285.73504 1866,-234.61801 2361,27.7827 c -30,3.407801 -59,10.223404 -89,20.446809 -71,22.718677 -134,59.068561 -191,109.049651 -56,49.98109 -103,110.18558 -140,182.88534 -50,97.69031 -76,201.06029 -77,310.10994 -1,90.87471 15,178.34161 48,262.40071 z"
       class="fil1"
       inkscape:connector-curvature="0" /><path
       style="fill:#ffffff;fill-opacity:1"
       id="path14"
       d="m 4659.2255,423.49823 0,-529.34516 57,0 0,201.060287 c 13,-14.76714 27,-24.990545 42,-31.806148 15,-6.815603 30,-10.223404 47,-10.223404 40,0 71,14.76714 93,44.301419 22,29.534276 33,71.563836 33,126.088656 l 0,199.92435 -57,0 0,-210.14776 c 0,-30.67021 -7,-54.52482 -20,-71.56383 -13,-17.039 -32,-24.99054 -56,-24.99054 -24,0 -43,10.2234 -58,30.67021 -15,20.44681 -22,46.57329 -22,80.6513 l 0,196.51656 -57,0 z m -214,-458.917264 57,0 0,96.554376 97,0 0,61.340428 -97,0 0,155.62293 c 0,29.53428 6,49.98109 19,63.6123 13,13.6312 32,20.44681 60,20.44681 l 18,0 0,62.47636 -19,0 c -45,0 -79,-11.35934 -101,-34.07802 -22,-22.71867 -34,-55.66076 -34,-101.09811 l 0,-323.74114 z m -213,458.917264 0,-362.362888 53,0 0,53.388888 c 10,-21.582741 23,-36.349881 40,-46.573285 17,-9.087471 40,-14.76714 69,-14.76714 l 15,0 0,62.476365 -9,0 c -39,0 -68,10.2234 -85,31.80614 -17,21.58275 -26,55.66076 -26,103.36998 l 0,171.52601 -57,0 0,0 z m -381,-181.74941 c 0,-24.99054 4,-48.84515 12,-71.56383 8,-22.71868 20,-43.16549 36,-61.34043 15,-18.174939 33,-31.806145 52,-40.893615 19,-9.087471 40,-13.631206 61,-13.631206 22,0 42,4.543735 62,13.631206 20,9.08747 37,22.718676 52,40.893615 15,18.17494 27,38.62175 35,61.34043 8,22.71868 12,46.57329 12,72.69976 0,26.12648 -4,49.98109 -12,72.69977 -8,22.71868 -20,43.16549 -35,61.34043 -15,18.17494 -33,31.80614 -52,40.89361 -19,9.08748 -40,13.63121 -62,13.63121 -22,0 -42,-4.54373 -61,-13.63121 -19,-9.08747 -36,-22.71867 -52,-40.89361 -16,-18.17494 -28,-38.62175 -36,-61.34043 -8,-22.71868 -12,-47.70922 -12,-72.69977 l 0,0 z m 59,-1.13593 c 0,35.21395 10,64.74823 30,89.73877 20,24.99054 44,36.34988 72,36.34988 28,0 52,-12.49527 72,-36.34988 20,-24.99054 30,-54.52482 30,-89.73877 0,-35.21395 -10,-64.74823 -30,-88.60284 -20,-23.85461 -44,-36.34988 -72,-36.34988 -28,0 -52,12.49527 -72,36.34988 -20,23.85461 -30,54.52482 -30,88.60284 l 0,0 z m -420,-346.45982 57,0 0,347.59575 c 0,37.48582 9,69.29196 28,92.01064 19,23.85461 43,35.21395 74,35.21395 31,0 56,-11.35934 75,-35.21395 19,-23.85461 29,-54.52482 29,-93.14657 0,-36.34989 -10,-67.0201 -29,-89.73878 -20,-22.71867 -45,-35.21394 -76,-35.21394 -14,0 -28,2.27186 -41,7.95153 -14,5.67967 -27,13.63121 -40,24.99055 l 0,-70.427901 c 13,-7.951537 27,-14.76714 41,-18.174941 14,-4.543736 30,-5.679669 45,-5.679669 15,0 30,2.271867 45,7.951536 15,5.67967 29,12.495273 41,22.718677 23,18.174938 41,40.893618 53,68.156028 12,27.26241 18,56.79669 18,88.60284 0,54.52482 -15,99.96218 -45,135.17613 -30,35.21395 -68,53.38889 -115,53.38889 -31,0 -59,-9.08747 -85,-26.12648 -26,-18.17494 -45,-42.02955 -59,-72.69977 -6,-13.6312 -11,-28.39834 -13,-44.30142 -3,-15.90307 -4,-40.89361 -4,-73.8357 l 0,-319.1974 z"
       class="fil1"
       inkscape:connector-curvature="0" /><path
       style="fill:#ffffff;fill-opacity:1"
       id="path16"
       d="m 6300,727.51794 c -8,51.11702 -26,92.01064 -55,122.68085 -29,30.67022 -64,45.43736 -105,45.43736 -14,0 -28,-2.27187 -42,-6.81561 -14,-4.54373 -27,-10.2234 -39,-19.31087 -26,-18.17494 -45,-40.89362 -60,-69.29197 -14,-28.39834 -21,-60.20449 -21,-94.2825 0,-24.99055 4,-48.84516 12,-71.56383 8,-22.71868 20,-43.16549 35,-61.34043 15,-18.17494 33,-31.80615 53,-40.89362 20,-9.08747 40,-13.63121 62,-13.63121 32,0 61,10.22341 87,29.53428 26,19.31088 46,47.70923 62,85.19504 l -209,131.76833 -24,-48.84516 155,-98.82624 c -10,-12.49527 -20,-21.58274 -32,-27.26241 -12,-5.67967 -25,-9.08747 -39,-9.08747 -29,0 -53,12.49527 -73,36.34988 -20,23.85461 -29,54.52482 -29,89.73877 0,35.21395 10,65.88416 30,89.73877 20,23.85461 44,36.34989 72,36.34989 27,0 50,-10.22341 68,-30.67022 18,-20.44681 30,-48.84515 34,-84.0591 l 58,10.2234 0,0 z m -362,-140.8558 -25,0 c -40,0 -72,11.35934 -96,32.94209 -24,21.58274 -36,51.11702 -36,87.4669 0,36.34988 12,64.74823 36,86.33097 24,21.58274 56,32.94208 96,32.94208 l 25,0 0,61.34043 -29,0 c -57,0 -102,-17.03901 -136,-49.98109 -34,-32.94208 -51,-77.2435 -51,-131.76832 0,-29.53428 6,-56.79669 18,-82.92317 12,-26.12648 29,-47.70922 52,-64.74823 16,-11.35934 32,-20.44681 50,-26.12648 18,-5.67967 40,-7.95154 68,-7.95154 l 29,0 0,62.47636 z m -413,301.02247 0,-362.36289 53,0 0,53.38889 c 10,-21.58274 23,-36.34988 40,-46.57329 17,-9.08747 40,-14.76714 69,-14.76714 l 15,0 0,62.47636 -9,0 c -39,0 -68,10.22341 -85,31.80615 -17,21.58274 -26,55.66076 -26,103.36998 l 0,171.52601 -57,0 0,0 z m -58,-160.16667 c -8,52.25296 -26,93.14657 -55,122.68085 -29,30.67022 -64,45.43736 -105,45.43736 -14,0 -28,-2.27187 -42,-6.81561 -14,-4.54373 -27,-10.2234 -39,-19.31087 -26,-18.17494 -45,-40.89362 -60,-69.29197 -14,-28.39834 -21,-60.20449 -21,-94.2825 0,-24.99055 4,-48.84516 12,-71.56383 8,-22.71868 20,-43.16549 35,-61.34043 15,-18.17494 33,-31.80615 53,-40.89362 20,-9.08747 40,-13.63121 62,-13.63121 32,0 61,10.22341 87,29.53428 26,19.31088 46,47.70923 62,85.19504 l -209,131.76833 -24,-48.84516 155,-98.82624 c -10,-12.49527 -20,-21.58274 -32,-27.26241 -12,-5.67967 -25,-9.08747 -39,-9.08747 -29,0 -53,12.49527 -73,36.34988 -20,23.85461 -29,54.52482 -29,89.73877 0,35.21395 10,65.88416 30,89.73877 20,23.85461 44,36.34989 72,36.34989 27,0 50,-10.22341 68,-30.67022 18,-20.44681 30,-48.84515 34,-84.0591 l 58,10.2234 0,0 z m -825,160.16667 0,-210.14776 c 0,-48.84515 11,-88.60284 34,-117.00118 23,-28.39835 53,-43.16549 92,-43.16549 20,0 38,4.54374 55,14.76714 17,9.08747 31,23.85461 43,42.02955 13,-18.17494 27,-31.80614 44,-42.02955 16,-9.08747 35,-13.63121 54,-13.63121 38,0 69,14.76714 92,43.16549 23,28.39835 34,68.15603 34,117.00118 l 0,210.14776 -57,0 0,-221.50709 c 0,-24.99055 -6,-45.43736 -19,-61.34043 -13,-15.90307 -29,-23.85461 -50,-23.85461 -21,0 -37,7.95154 -50,23.85461 -13,15.90307 -19,36.34988 -19,61.34043 l 0,221.50709 -57,0 0,-221.50709 c 0,-24.99055 -7,-45.43736 -20,-61.34043 -13,-15.90307 -30,-23.85461 -50,-23.85461 -21,0 -38,7.95154 -50,23.85461 -13,15.90307 -19,36.34988 -19,61.34043 l 0,221.50709 -57,0 0,0 z m -518,0 0,-210.14776 c 0,-48.84515 11,-88.60284 34,-117.00118 23,-28.39835 53,-43.16549 92,-43.16549 20,0 38,4.54374 55,14.76714 17,9.08747 31,23.85461 43,42.02955 13,-18.17494 27,-31.80614 44,-42.02955 16,-9.08747 35,-13.63121 54,-13.63121 38,0 69,14.76714 92,43.16549 23,28.39835 34,68.15603 34,117.00118 l 0,210.14776 -57,0 0,-221.50709 c 0,-24.99055 -6,-45.43736 -19,-61.34043 -13,-15.90307 -29,-23.85461 -50,-23.85461 -21,0 -37,7.95154 -50,23.85461 -13,15.90307 -19,36.34988 -19,61.34043 l 0,221.50709 -57,0 0,-221.50709 c 0,-24.99055 -7,-45.43736 -20,-61.34043 -13,-15.90307 -30,-23.85461 -50,-23.85461 -21,0 -38,7.95154 -50,23.85461 -13,15.90307 -19,36.34988 -19,61.34043 l 0,221.50709 -57,0 0,0 z M 3747,705.9352 c 0,-24.99055 4,-48.84516 12,-71.56383 8,-22.71868 20,-43.16549 36,-61.34043 15,-18.17494 33,-31.80615 52,-40.89362 19,-9.08747 40,-13.63121 61,-13.63121 22,0 42,4.54374 62,13.63121 20,9.08747 37,22.71868 52,40.89362 15,18.17494 27,38.62175 35,61.34043 8,22.71867 12,46.57328 12,72.69976 0,26.12648 -4,49.98109 -12,72.69977 -8,22.71867 -20,43.16548 -35,61.34042 -15,18.17494 -33,31.80615 -52,40.89362 -19,9.08747 -40,13.63121 -62,13.63121 -22,0 -42,-4.54374 -61,-13.63121 -19,-9.08747 -36,-22.71868 -52,-40.89362 -16,-18.17494 -28,-38.62175 -36,-61.34042 -8,-22.71868 -12,-47.70922 -12,-72.69977 l 0,0 z m 59,-1.13594 c 0,35.21395 10,64.74823 30,89.73878 20,24.99054 44,36.34988 72,36.34988 28,0 52,-12.49527 72,-36.34988 20,-24.99055 30,-54.52483 30,-89.73878 0,-35.21395 -10,-64.74823 -30,-88.60284 -20,-23.85461 -44,-36.34988 -72,-36.34988 -28,0 -52,12.49527 -72,36.34988 -20,23.85461 -30,54.52483 -30,88.60284 l 0,0 z m -99,-118.13712 -25,0 c -40,0 -72,11.35934 -96,32.94209 -24,21.58274 -36,51.11702 -36,87.4669 0,36.34988 12,64.74823 36,86.33097 24,21.58274 56,32.94208 96,32.94208 l 25,0 0,61.34043 -29,0 c -57,0 -102,-17.03901 -136,-49.98109 -34,-32.94208 -51,-77.2435 -51,-131.76832 0,-29.53428 6,-56.79669 18,-82.92317 12,-26.12648 29,-47.70922 52,-64.74823 16,-11.35934 32,-20.44681 50,-26.12648 18,-5.67967 40,-7.95154 68,-7.95154 l 29,0 0,62.47636 z"
       class="fil0"
       inkscape:connector-curvature="0" /></g></svg>